<svg t="1705817530116" class="icon" viewBox="0 0 1214 1024" version="1.1" xmlns="http://www.w3.org/2000/svg" p-id="6344" width="128" height="128" fill="currentColor"><path d="M1055.91690687 696.29003281c24.36190406-83.732055-75.86718844-113.17734844-119.12395406-83.732055s-20.42947031 55.72545656 4.02834563 64.74127969c39.22842 14.38695094 38.36520281 81.23831719-21.58042594 110.20404469a53.23171875 53.23171875 0 0 1-73.75710281-65.50858313 161.61341625 161.61341625 0 0 1 8.15260593-19.18260187q5.17930219-8.63217094 9.5913-17.55208032A442.3507875 442.3507875 0 1 0 47.58346531 590.59389969a441.19983188 441.19983188 0 0 0 73.85301563 150.87115969C262.42860125 946.33524219 519.95502406 1031.02642719 732.402335 975.20505688c158.44828781-41.626245 229.04026031-105.5043075 256.18364062-138.21064313a47.95650375 47.95650375 0 0 1 59.0824125-13.42782094 49.39519875 49.39519875 0 0 1 25.80059907 38.94068063c6.42617156 43.25676656 67.13910469 53.23171875 86.32170656 14.00329969 29.63711906-58.89058594-11.41364812-161.03793844-103.87378688-180.22054032z" p-id="6345"></path></svg>
